<svg width="117" height="39" viewBox="0 0 117 39" fill="none" xmlns="http://www.w3.org/2000/svg">
<path fill-rule="evenodd" clip-rule="evenodd" d="M26.4182 14.5286C26.4182 19.9723 22.0018 24.3853 16.5538 24.3853C11.1059 24.3853 6.68945 19.9723 6.68945 14.5286C6.68945 9.08488 11.1059 4.67188 16.5538 4.67188C22.0018 4.67188 26.4182 9.08487 26.4182 14.5286ZM22.5781 14.5286C22.5781 17.8531 19.8809 20.5481 16.5538 20.5481C13.2268 20.5481 10.5296 17.8531 10.5296 14.5286C10.5296 11.2041 13.2268 8.50906 16.5538 8.50906C19.8809 8.50906 22.5781 11.2041 22.5781 14.5286Z" fill="#FFA800"/>
<path d="M62.2971 7.35302C62.2971 8.07326 62.5492 8.69267 63.0534 9.21125C63.5575 9.72983 64.1698 9.98911 64.89 9.98911C65.6102 9.98911 66.2225 9.72983 66.7266 9.21125C67.2308 8.69267 67.4829 8.07326 67.4829 7.35302C67.4829 6.61837 67.2308 5.99175 66.7266 5.47318C66.2225 4.9546 65.6102 4.69531 64.89 4.69531C64.1698 4.69531 63.5575 4.9546 63.0534 5.47318C62.5492 5.99175 62.2971 6.61837 62.2971 7.35302Z" fill="#1B1F6B"/>
<path d="M63.069 37.8872C62.8813 37.8872 62.7291 37.735 62.7291 37.5473V12.7304C62.7291 12.5427 62.8813 12.3905 63.069 12.3905H66.7107C66.8984 12.3905 67.0506 12.5427 67.0506 12.7304V37.5473C67.0506 37.735 66.8984 37.8872 66.7107 37.8872H63.069Z" fill="#1B1F6B"/>
<path d="M41.4125 37.8872C41.2248 37.8872 41.0726 37.735 41.0726 37.5473V21.4656C41.0726 19.0888 41.9657 17.0217 43.7519 15.2643C45.4229 13.6365 47.5188 12.8227 50.0397 12.8227C52.5317 12.8227 54.6276 13.6365 56.3274 15.2643C58.1136 16.9929 59.0067 19.06 59.0067 21.4656V37.5473C59.0067 37.735 58.8545 37.8872 58.6668 37.8872H55.0252C54.8374 37.8872 54.6852 37.735 54.6852 37.5473V21.4656C54.6852 19.809 54.2315 18.599 53.324 17.8356C52.4309 17.0577 51.3361 16.6688 50.0397 16.6688C48.7432 16.6688 47.6412 17.0577 46.7337 17.8356C45.8406 18.599 45.3941 19.809 45.3941 21.4656V37.5473C45.3941 37.735 45.2419 37.8872 45.0541 37.8872H41.4125Z" fill="#1B1F6B"/>
<path d="M70.773 37.5473C70.773 37.735 70.9252 37.8872 71.1129 37.8872H74.7545C74.9423 37.8872 75.0944 37.733 75.0944 37.5452V21.4656C75.0944 19.809 75.541 18.599 76.4341 17.8356C77.3416 17.0577 78.4436 16.6688 79.74 16.6688H80.4393C80.6762 16.6688 80.8405 16.4324 80.7579 16.2103L79.58 13.0441C79.5305 12.911 79.4034 12.8221 79.2614 12.8251C76.8602 12.8747 75.0706 13.6878 73.4523 15.2643C71.6661 17.0217 70.773 19.0888 70.773 21.4656V37.5473Z" fill="#1B1F6B"/>
<path d="M89.7582 37.8872C89.6101 37.8872 89.4791 37.7913 89.4342 37.6501L81.6936 13.261C81.624 13.0418 81.7877 12.8183 82.0176 12.8183H86.018C86.1702 12.8183 86.3038 12.9194 86.3451 13.0659L91.2381 30.411L96.0026 13.0681C96.0432 12.9205 96.1774 12.8183 96.3304 12.8183H100.34C100.567 12.8183 100.73 13.036 100.666 13.2536L93.5351 37.6427C93.4928 37.7876 93.3599 37.8872 93.2089 37.8872H89.7582Z" fill="#1B1F6B"/>
<path fill-rule="evenodd" clip-rule="evenodd" d="M116.66 37.8872C116.848 37.8872 117 37.735 117 37.5473V21.4656C117 19.0744 116.107 17.0073 114.321 15.2643C112.65 13.6365 110.554 12.8227 108.033 12.8227H103.032C102.884 12.8227 102.752 12.9192 102.708 13.0611L101.717 16.2273C101.648 16.4462 101.812 16.6688 102.041 16.6688H108.033C109.373 16.6688 110.475 17.0577 111.339 17.8356C112.232 18.6422 112.679 19.9805 112.679 22.5302C111.353 21.3057 109.805 20.6935 108.033 20.6935C105.541 20.6935 103.51 21.4714 101.94 23.0271C100.312 24.6405 99.498 26.5995 99.498 28.9043C99.498 31.1227 100.247 33.0457 101.745 34.6735C103.243 36.3012 105.339 37.1151 108.033 37.1151C109.978 37.1151 111.526 36.5029 112.679 35.2785V37.5473C112.679 37.735 112.831 37.8872 113.018 37.8872H116.66ZM104.9 32.0806C104.122 31.2451 103.733 30.1864 103.733 28.9043C103.733 27.7231 104.129 26.7076 104.921 25.8577C105.714 25.0078 106.765 24.5828 108.076 24.5828C109.329 24.5828 110.403 24.9862 111.296 25.7929C112.189 26.5995 112.635 27.6511 112.635 28.9475C112.635 30.0999 112.203 31.1371 111.339 32.059C110.561 32.8801 109.466 33.2906 108.055 33.2906C106.7 33.2906 105.649 32.8873 104.9 32.0806Z" fill="#1B1F6B"/>
<path d="M5.16371 29.299C5.16371 28.2386 6.02336 27.3789 7.0838 27.3789L26.017 27.3789C27.0775 27.3789 27.9371 28.2386 27.9371 29.299C27.9371 30.3594 27.0775 31.2191 26.017 31.2191H7.0838C6.02336 31.2191 5.16371 30.3595 5.16371 29.299Z" fill="#1B1F6B"/>
<path d="M0 36.1852C0 35.1248 0.859653 34.2651 1.92009 34.2651H31.1806C32.241 34.2651 33.1006 35.1248 33.1006 36.1852C33.1006 37.2456 32.241 38.1053 31.1806 38.1053H1.92009C0.859653 38.1053 0 37.2456 0 36.1852Z" fill="#1B1F6B"/>
</svg>
